<svg width="24" height="24" viewBox="0 0 24 24" fill="none" xmlns="http://www.w3.org/2000/svg">
<circle cx="12" cy="12" r="12" fill="#0F2D49"/>
<path d="M12 5C13.9019 5 14.1392 5.007 14.8854 5.042C15.6309 5.077 16.1384 5.1939 16.585 5.3675C17.047 5.5453 17.4362 5.7861 17.8254 6.1746C18.1813 6.52453 18.4568 6.94781 18.6325 7.415C18.8054 7.8609 18.923 8.3691 18.958 9.1146C18.9909 9.8608 19 10.0981 19 12C19 13.9019 18.993 14.1392 18.958 14.8854C18.923 15.6309 18.8054 16.1384 18.6325 16.585C18.4573 17.0524 18.1818 17.4758 17.8254 17.8254C17.4754 18.1812 17.0521 18.4566 16.585 18.6325C16.1391 18.8054 15.6309 18.923 14.8854 18.958C14.1392 18.9909 13.9019 19 12 19C10.0981 19 9.8608 18.993 9.1146 18.958C8.3691 18.923 7.8616 18.8054 7.415 18.6325C6.94763 18.4571 6.52427 18.1817 6.1746 17.8254C5.81858 17.4755 5.54315 17.0522 5.3675 16.585C5.1939 16.1391 5.077 15.6309 5.042 14.8854C5.0091 14.1392 5 13.9019 5 12C5 10.0981 5.007 9.8608 5.042 9.1146C5.077 8.3684 5.1939 7.8616 5.3675 7.415C5.54267 6.94753 5.81816 6.52412 6.1746 6.1746C6.52437 5.81846 6.9477 5.54301 7.415 5.3675C7.8616 5.1939 8.3684 5.077 9.1146 5.042C9.8608 5.0091 10.0981 5 12 5ZM12 8.5C11.0717 8.5 10.1815 8.86875 9.52513 9.52513C8.86875 10.1815 8.5 11.0717 8.5 12C8.5 12.9283 8.86875 13.8185 9.52513 14.4749C10.1815 15.1313 11.0717 15.5 12 15.5C12.9283 15.5 13.8185 15.1313 14.4749 14.4749C15.1313 13.8185 15.5 12.9283 15.5 12C15.5 11.0717 15.1313 10.1815 14.4749 9.52513C13.8185 8.86875 12.9283 8.5 12 8.5ZM16.55 8.325C16.55 8.09294 16.4578 7.87038 16.2937 7.70628C16.1296 7.54219 15.9071 7.45 15.675 7.45C15.4429 7.45 15.2204 7.54219 15.0563 7.70628C14.8922 7.87038 14.8 8.09294 14.8 8.325C14.8 8.55706 14.8922 8.77962 15.0563 8.94372C15.2204 9.10781 15.4429 9.2 15.675 9.2C15.9071 9.2 16.1296 9.10781 16.2937 8.94372C16.4578 8.77962 16.55 8.55706 16.55 8.325ZM12 9.9C12.557 9.9 13.0911 10.1212 13.4849 10.5151C13.8788 10.9089 14.1 11.443 14.1 12C14.1 12.557 13.8788 13.0911 13.4849 13.4849C13.0911 13.8788 12.557 14.1 12 14.1C11.443 14.1 10.9089 13.8788 10.5151 13.4849C10.1212 13.0911 9.9 12.557 9.9 12C9.9 11.443 10.1212 10.9089 10.5151 10.5151C10.9089 10.1212 11.443 9.9 12 9.9Z" fill="white"/>
</svg>
