<svg width="100" height="69" viewBox="0 0 100 69" fill="none" xmlns="http://www.w3.org/2000/svg">
<ellipse cx="26.5" cy="25" rx="26.5" ry="25" fill="#68AEF0"/>
<rect y="43" width="100" height="12" rx="5" fill="#00FA9D"/>
<path d="M32.7251 23.6769C32.7251 23.6769 38.9693 18.8783 43.2911 16.4637C48.5202 13.5415 61.4393 10.7732 68.3602 16.0023C72.9588 19.4782 73.0665 31.9974 73.0665 33.2585C73.0665 34.5197 73.3587 37.4264 71.5131 38.1032C69.6829 38.7645 20.9903 38.1493 20.9903 38.1493C20.9903 38.1493 16.8377 33.2277 20.5289 28.7676C21.7593 27.2757 26.0502 25.0303 32.7251 23.6769Z" fill="#1E2813"/>
<path d="M30.5566 43.6092C33.4191 43.6092 35.7396 41.2887 35.7396 38.4262C35.7396 35.5637 33.4191 33.2432 30.5566 33.2432C27.6941 33.2432 25.3736 35.5637 25.3736 38.4262C25.3736 41.2887 27.6941 43.6092 30.5566 43.6092Z" fill="#1E2813"/>
<path d="M61.2701 43.6092C64.1326 43.6092 66.4532 41.2887 66.4532 38.4262C66.4532 35.5637 64.1326 33.2432 61.2701 33.2432C58.4077 33.2432 56.0871 35.5637 56.0871 38.4262C56.0871 41.2887 58.4077 43.6092 61.2701 43.6092Z" fill="#1E2813"/>
<path d="M66 21.5822C66 21.5822 68.6568 21.0185 68.8477 21.5822C69.0386 22.1459 67.75 29.2963 69.2136 29.6721C70.6773 30.0479 75.5455 30.1666 76.1977 29.6721C76.8341 29.1776 76.1977 11.7516 76.1977 11.7516C76.1977 11.7516 76.1977 10.9407 77.8523 11.0099L80 11" stroke="#1E2813" stroke-miterlimit="10"/>
<path d="M89.0615 2.77563C88.677 2.77563 81.1255 2.77563 81.1255 2.77563C81.1255 2.77563 78.8954 3.06785 78.8032 5.09799C78.7109 7.12813 78.8032 43.6091 78.8032 43.6091H90.9994V4.89805C90.9994 4.89805 91.0917 2.77563 89.0615 2.77563Z" fill="#1E2813"/>
<path d="M86.7545 22.0004H82.8634C82.0637 22.0004 81.4177 21.3545 81.4177 20.5547V9.63504C81.4177 7.88174 82.8327 6.4668 84.586 6.4668C86.57 6.4668 88.1849 8.08169 88.1849 10.0657V20.5701C88.2002 21.3545 87.5543 22.0004 86.7545 22.0004Z" fill="#00FA9D"/>
<path d="M37.7543 23.1229C37.7543 23.1229 45.1367 17.0786 51.0579 15.9251C53.0265 15.5406 61.5162 13.8334 66.6838 17.9245C66.6838 17.9245 69.037 19.6778 69.8982 23.2305L37.7543 23.1229Z" fill="white"/>
<path d="M66.0071 28.7675H65.3304C65.0536 28.7675 64.8229 28.5368 64.8229 28.2599V27.5832C64.8229 27.3064 65.0536 27.0757 65.3304 27.0757H66.0071C66.284 27.0757 66.5147 27.3064 66.5147 27.5832V28.2599C66.5147 28.5368 66.284 28.7675 66.0071 28.7675Z" fill="#1E2813"/>
<path d="M14.32 57.32H21.712C21.888 57.32 22.04 57.384 22.168 57.512C22.296 57.64 22.36 57.792 22.36 57.968V61.352C22.36 61.528 22.296 61.68 22.168 61.808C22.04 61.936 21.888 62 21.712 62H9.208C9.032 62 8.88 61.936 8.752 61.808C8.624 61.68 8.56 61.528 8.56 61.352V45.848C8.56 45.672 8.624 45.52 8.752 45.392C8.88 45.264 9.032 45.2 9.208 45.2H21.52C21.696 45.2 21.848 45.264 21.976 45.392C22.104 45.52 22.168 45.672 22.168 45.848V49.232C22.168 49.408 22.104 49.56 21.976 49.688C21.848 49.816 21.696 49.88 21.52 49.88H14.32V51.392H20.992C21.168 51.392 21.32 51.456 21.448 51.584C21.576 51.712 21.64 51.864 21.64 52.04V55.16C21.64 55.336 21.576 55.488 21.448 55.616C21.32 55.744 21.168 55.808 20.992 55.808H14.32V57.32ZM28.1755 51.56H36.6475C36.8235 51.56 36.9755 51.624 37.1035 51.752C37.2315 51.88 37.2955 52.032 37.2955 52.208V55.616C37.2955 55.792 37.2315 55.944 37.1035 56.072C36.9755 56.2 36.8235 56.264 36.6475 56.264H28.1755C27.9995 56.264 27.8475 56.2 27.7195 56.072C27.5915 55.944 27.5275 55.792 27.5275 55.616V52.208C27.5275 52.032 27.5915 51.88 27.7195 51.752C27.8475 51.624 27.9995 51.56 28.1755 51.56ZM47.8628 54.92V56.6C47.8628 57.144 47.9348 57.536 48.0788 57.776C48.2228 58.016 48.4468 58.136 48.7508 58.136C49.0548 58.136 49.2628 58.088 49.3748 57.992C49.4868 57.88 49.5988 57.68 49.7108 57.392C49.8388 57.088 50.0708 56.936 50.4068 56.936H55.0868C55.2628 56.936 55.4148 57 55.5428 57.128C55.6708 57.256 55.7348 57.424 55.7348 57.632C55.7348 57.84 55.6628 58.12 55.5188 58.472C55.3748 58.824 55.1268 59.224 54.7748 59.672C54.4228 60.12 53.9908 60.536 53.4788 60.92C52.9668 61.288 52.2948 61.6 51.4628 61.856C50.6308 62.112 49.7108 62.24 48.7028 62.24C46.7028 62.24 45.0788 61.72 43.8308 60.68C42.5988 59.624 41.9828 58.168 41.9828 56.312V55.208C41.9828 53.352 42.5988 51.904 43.8308 50.864C45.0788 49.808 46.7028 49.28 48.7028 49.28C49.8868 49.28 50.9588 49.464 51.9188 49.832C52.8788 50.184 53.6148 50.624 54.1268 51.152C54.6548 51.664 55.0548 52.168 55.3268 52.664C55.5988 53.16 55.7348 53.544 55.7348 53.816C55.7348 54.072 55.6708 54.264 55.5428 54.392C55.4148 54.52 55.2628 54.584 55.0868 54.584H50.4068C50.1028 54.584 49.8708 54.424 49.7108 54.104C49.4868 53.624 49.1908 53.384 48.8228 53.384C48.1828 53.384 47.8628 53.896 47.8628 54.92ZM60.1675 58.424C60.1675 56.264 61.9195 54.88 65.4235 54.272L67.9675 53.864C67.9675 53.384 67.9275 53.064 67.8475 52.904C67.7675 52.728 67.5755 52.64 67.2715 52.64C66.9835 52.64 66.6955 52.768 66.4075 53.024C66.1195 53.28 65.8475 53.408 65.5915 53.408H61.5115C61.1595 53.408 60.9835 53.24 60.9835 52.904C60.9835 52.552 61.1035 52.184 61.3435 51.8C61.5995 51.4 61.9595 51.008 62.4235 50.624C62.9035 50.24 63.5675 49.92 64.4155 49.664C65.2795 49.408 66.2395 49.28 67.2955 49.28C69.4395 49.28 71.0475 49.728 72.1195 50.624C73.1915 51.52 73.7275 52.8 73.7275 54.464V61.352C73.7275 61.528 73.6635 61.68 73.5355 61.808C73.4075 61.936 73.2555 62 73.0795 62H68.8795C68.7035 62 68.5515 61.936 68.4235 61.808C68.2955 61.68 68.2315 61.528 68.2315 61.352V60.68C67.4795 61.72 66.3835 62.24 64.9435 62.24C63.5035 62.24 62.3435 61.88 61.4635 61.16C60.5995 60.424 60.1675 59.512 60.1675 58.424ZM66.4795 58.688C67.5195 58.688 68.0395 58.064 68.0395 56.816L66.6235 57.128C65.9195 57.288 65.5675 57.584 65.5675 58.016C65.5675 58.208 65.6475 58.368 65.8075 58.496C65.9675 58.624 66.1915 58.688 66.4795 58.688ZM84.1323 50.168V51.008C85.2523 50.016 86.5003 49.52 87.8763 49.52H89.0283C89.2043 49.52 89.3563 49.584 89.4843 49.712C89.6123 49.84 89.6763 49.992 89.6763 50.168V53.912C89.6763 54.088 89.6123 54.24 89.4843 54.368C89.3563 54.496 89.2043 54.56 89.0283 54.56H85.9323C85.5003 54.56 85.1563 54.664 84.9003 54.872C84.6603 55.064 84.5243 55.328 84.4923 55.664V61.352C84.4923 61.528 84.4283 61.68 84.3003 61.808C84.1723 61.936 84.0203 62 83.8443 62H79.2843C79.1083 62 78.9563 61.936 78.8283 61.808C78.7003 61.68 78.6363 61.528 78.6363 61.352V50.168C78.6363 49.992 78.7003 49.84 78.8283 49.712C78.9563 49.584 79.1083 49.52 79.2843 49.52H83.4843C83.6603 49.52 83.8123 49.584 83.9403 49.712C84.0683 49.84 84.1323 49.992 84.1323 50.168Z" fill="#1E2813"/>
</svg>
